#!OML:ASF G:\JayActor3\Patient Classification 1\Patient 1\Session 6\male.ASF
:FULLY-SPECIFIED
:DEGREES
2686
root 7.25373 16.2579 -23.6085 1.25942 -113.55 0.292042
lowerback 4.18713 -0.276963 7.23941
upperback 6.55604 -0.687627 2.05109
thorax 4.44371 -0.204627 -1.92381
lowerneck -5.08597 -6.35653 -2.82052
upperneck 8.4969 -8.87569 5.21469
head 4.11692 -4.28766 1.76302
rclavicle -8.74653e-015 -3.26007e-014
rhumerus -15.409 12.9623 -75.9809
rradius 78.4248
rwrist -36.2501
rhand -18.1517 -10.5942
rfingers 7.12502
rthumb 8.12393 -40.4181
lclavicle -8.74653e-015 -3.26007e-014
lhumerus -34.7862 19.6614 73.0089
lradius 23.9351
lwrist 28.4089
lhand -9.99139 9.6624
lfingers 7.12502
lthumb 15.9919 39.0223
rfemur -8.73568 1.95338 21.722
rtibia 35.5026
rfoot -31.204 -23.192
rtoes -0.462836
lfemur -24.4092 3.5774 -10.0359
ltibia 23.0087
lfoot -10.2011 3.5913
ltoes -11.9377
2687
root 7.21285 16.2523 -23.6148 0.908251 -113.733 0.696499
lowerback 4.14434 -0.229952 7.26248
upperback 6.54641 -0.628015 2.05786
thorax 4.46309 -0.173466 -1.93008
lowerneck -5.07653 -6.35669 -2.82529
upperneck 8.50387 -8.88036 5.25034
head 4.12038 -4.28903 1.77582
rclavicle 3.37934e-014 -1.82882e-014
rhumerus -14.9534 12.9623 -75.9419
rradius 78.0116
rwrist -36.4929
rhand -19.6509 -10.7957
rfingers 7.12502
rthumb 6.67682 -40.6704
lclavicle 3.37934e-014 -1.82882e-014
lhumerus -34.938 19.9143 72.8706
lradius 23.5714
lwrist 28.1916
lhand -9.83744 9.70586
lfingers 7.12502
lthumb 16.1402 39.0538
rfemur -8.55621 1.9606 21.8381
rtibia 35.381
rfoot -31.1547 -23.0781
rtoes -0.640974
lfemur -24.4951 3.48409 -9.96823
ltibia 22.8722
lfoot -10.4231 3.32112
ltoes -11.9236
2688
root 7.17053 16.2463 -23.6201 0.553259 -113.928 1.1054
lowerback 4.09198 -0.18516 7.2878
upperback 6.53996 -0.57252 2.06275
thorax 4.49096 -0.143916 -1.93952
lowerneck -5.07496 -6.35303 -2.82802
upperneck 8.51691 -8.8797 5.28033
head 4.12683 -4.28772 1.78639
rclavicle -2.42517e-014 2.14687e-014
rhumerus -14.4921 12.9642 -75.9121
rradius 77.5917
rwrist -36.7255
rhand -21.0872 -10.9924
rfingers 7.12502
rthumb 5.29016 -40.9064
lclavicle -2.42517e-014 2.14687e-014
lhumerus -35.0775 20.1632 72.7315
lradius 23.2169
lwrist 27.9681
lhand -9.68857 9.78278
lfingers 7.12502
lthumb 16.2835 39.1191
rfemur -8.37346 1.97699 21.9518
rtibia 35.2597
rfoot -31.1072 -22.954
rtoes -0.803931
lfemur -24.5542 3.37391 -9.87847
ltibia 22.7694
lfoot -10.6319 3.07316
ltoes -11.8808
2689
root 7.12673 16.2401 -23.6243 0.201709 -114.132 1.50886
lowerback 4.03111 -0.143508 7.31214
upperback 6.53641 -0.522216 2.06523
thorax 4.52629 -0.116656 -1.95086
lowerneck -5.07834 -6.34543 -2.83238
upperneck 8.53532 -8.87371 5.30889
head 4.13592 -4.28377 1.7969
rclavicle 2.62396e-014 -3.81667e-014
rhumerus -14.0265 12.9663 -75.8909
rradius 77.1657
rwrist -36.9416
rhand -22.2221 -11.1707
rfingers 7.12502
rthumb 4.19432 -41.1092
lclavicle 2.62396e-014 -3.81667e-014
lhumerus -35.2073 20.4242 72.5844
lradius 22.8677
lwrist 27.7258
lhand -9.51827 9.87128
lfingers 7.12502
lthumb 16.4475 39.194
rfemur -8.1864 2.00176 22.0601
rtibia 35.1402
rfoot -31.0558 -22.8365
rtoes -0.981456
lfemur -24.584 3.2379 -9.76972
ltibia 22.699
lfoot -10.8318 2.84925
ltoes -11.7656
2690
root 7.08135 16.2336 -23.6273 -0.139364 -114.343 1.89536
lowerback 3.96737 -0.105804 7.33418
upperback 6.53508 -0.477514 2.06381
thorax 4.56512 -0.0920304 -1.96488
lowerneck -5.07971 -6.33652 -2.8381
upperneck 8.55166 -8.8657 5.33694
head 4.14383 -4.27894 1.80769
rclavicle -2.22639e-014 5.80451e-014
rhumerus -13.5595 12.9718 -75.8759
rradius 76.7362
rwrist -37.1519
rhand -22.9947 -11.2982
rfingers 7.12502
rthumb 3.44817 -41.2501
lclavicle -2.22639e-014 5.80451e-014
lhumerus -35.331 20.6854 72.4342
lradius 22.53
lwrist 27.4752
lhand -9.33304 9.97107
lfingers 7.12502
lthumb 16.6258 39.279
rfemur -7.99147 2.03351 22.1575
rtibia 35.0229
rfoot -31.0087 -22.7209
rtoes -1.15363
lfemur -24.5796 3.07913 -9.65172
ltibia 22.6612
lfoot -11.0128 2.65217
ltoes -11.6536
2691
root 7.03449 16.2269 -23.6292 -0.473111 -114.563 2.27313
lowerback 3.89627 -0.0703957 7.35412
upperback 6.53459 -0.436535 2.06049
thorax 4.6087 -0.0690987 -1.97965
lowerneck -5.08012 -6.32498 -2.84601
upperneck 8.56554 -8.85397 5.36634
head 4.1507 -4.27234 1.81962
rclavicle -9.14409e-015 -3.97569e-015
rhumerus -13.0881 12.9818 -75.8625
rradius 76.296
rwrist -37.3483
rhand -23.1682 -11.3629
rfingers 7.12502
rthumb 3.28068 -41.3174
lclavicle -9.14409e-015 -3.97569e-015
lhumerus -35.4557 20.9286 72.2904
lradius 22.2238
lwrist 27.2382
lhand -9.14272 10.085
lfingers 7.12502
lthumb 16.809 39.3775
rfemur -7.79377 2.07229 22.2477
rtibia 34.9077
rfoot -30.9633 -22.6088
rtoes -1.32896
lfemur -24.5455 2.89867 -9.52129
ltibia 22.655
lfoot -11.1736 2.48611
ltoes -11.5149
2692
root 6.98627 16.22 -23.6298 -0.801249 -114.793 2.64284
lowerback 3.82718 -0.0360077 7.37332
upperback 6.53182 -0.396419 2.05591
thorax 4.64865 -0.0466932 -1.99522
lowerneck -5.08233 -6.31357 -2.8565
upperneck 8.58184 -8.84231 5.39548
head 4.15894 -4.26582 1.83185
rclavicle -4.77083e-014 -1.59028e-015
rhumerus -12.6177 12.9994 -75.8487
rradius 75.8501
rwrist -37.5575
rhand -23.3606 -11.4142
rfingers 7.12502
rthumb 3.09482 -41.3715
lclavicle -4.77083e-014 -1.59028e-015
lhumerus -35.583 21.1626 72.148
lradius 21.9418
lwrist 27.0023
lhand -8.94153 10.1894
lfingers 7.12502
lthumb 17.0027 39.4652
rfemur -7.59219 2.11982 22.3317
rtibia 34.7945
rfoot -30.919 -22.5004
rtoes -1.5109
lfemur -24.4821 2.7059 -9.38231
ltibia 22.6806
lfoot -11.3025 2.35319
ltoes -11.4069
2693
root 6.93672 16.2128 -23.6291 -1.12115 -115.029 2.99912
lowerback 3.76267 -0.00346119 7.39068
upperback 6.52892 -0.358294 2.04976
thorax 4.68571 -0.0254187 -2.01133
lowerneck -5.08871 -6.30096 -2.8664
upperneck 8.594 -8.82844 5.4227
head 4.16624 -4.25821 1.84337
rclavicle 1.21259e-014 -8.74653e-015
rhumerus -12.1453 13.0285 -75.8309
rradius 75.3994
rwrist -37.786
rhand -23.428 -11.4454
rfingers 7.12502
rthumb 3.02974 -41.4036
lclavicle 1.21259e-014 -8.74653e-015
lhumerus -35.7088 21.3649 72.0214
lradius 21.695
lwrist 26.7883
lhand -8.74697 10.2879
lfingers 7.12502
lthumb 17.19 39.5475
rfemur -7.38418 2.17622 22.4072
rtibia 34.6836
rfoot -30.8825 -22.3954
rtoes -1.68946
lfemur -24.3892 2.50347 -9.24204
ltibia 22.7366
lfoot -11.3864 2.25122
ltoes -11.3746
2694
root 6.88597 16.2055 -23.6273 -1.42391 -115.285 3.3431
lowerback 3.69617 0.0329486 7.40168
upperback 6.52313 -0.314851 2.0436
thorax 4.72124 -0.0018036 -2.02381
lowerneck -5.10416 -6.28834 -2.87475
upperneck 8.608 -8.81418 5.44604
head 4.17564 -4.25028 1.85306
rclavicle 3.06128e-014 -2.78299e-014
rhumerus -11.6666 13.0675 -75.8077
rradius 74.9382
rwrist -38.0346
rhand -23.4812 -11.4485
rfingers 7.12502
rthumb 2.97841 -41.4075
lclavicle 3.06128e-014 -2.78299e-014
lhumerus -35.8363 21.5318 71.9135
lradius 21.4948
lwrist 26.6091
lhand -8.57684 10.3872
lfingers 7.12502
lthumb 17.3537 39.6325
rfemur -7.18313 2.25214 22.4753
rtibia 34.5764
rfoot -30.8416 -22.2992
rtoes -1.87542
lfemur -24.2733 2.29757 -9.09686
ltibia 22.8194
lfoot -11.4352 2.18629
ltoes -11.3469
2695
root 6.83403 16.1979 -23.6243 -1.72038 -115.565 3.68566
lowerback 3.62654 0.0744188 7.41204
upperback 6.51581 -0.264841 2.0384
thorax 4.75752 0.0250453 -2.03484
lowerneck -5.11991 -6.27453 -2.87853
upperneck 8.61611 -8.79761 5.4638
head 4.18222 -4.24133 1.86024
rclavicle -1.19271e-013 7.95139e-016
rhumerus -11.1827 13.1143 -75.7801
rradius 74.4693
rwrist -38.2894
rhand -23.5306 -11.4563
rfingers 7.12502
rthumb 2.93066 -41.4159
lclavicle -1.19271e-013 7.95139e-016
lhumerus -35.9645 21.6557 71.8285
lradius 21.3446
lwrist 26.4645
lhand -8.41317 10.4783
lfingers 7.12502
lthumb 17.5113 39.7096
rfemur -6.98953 2.35 22.5418
rtibia 34.4739
rfoot -30.7851 -22.2261
rtoes -2.1109
lfemur -24.1313 2.09309 -8.94292
ltibia 22.9219
lfoot -11.449 2.14962
ltoes -11.3184
